<mxfile host="app.diagrams.net" agent="Mozilla/5.0 (Macintosh; Intel Mac OS X 10_15_7) AppleWebKit/537.36 (KHTML, like Gecko) Chrome/127.0.0.0 Safari/537.36" version="24.7.7">
  <diagram name="Page-1" id="9ylrQpaLR2zZn0Y1naeg">
    <mxGraphModel dx="1202" dy="1070" grid="0" gridSize="10" guides="1" tooltips="1" connect="1" arrows="1" fold="1" page="0" pageScale="1" pageWidth="850" pageHeight="1100" math="0" shadow="0">
      <root>
        <mxCell id="0" />
        <mxCell id="1" parent="0" />
        <mxCell id="tQMuXIStEdkvnsYo-aWA-1" value="" style="whiteSpace=wrap;html=1;aspect=fixed;" parent="1" vertex="1">
          <mxGeometry x="29" y="149" width="816" height="816" as="geometry" />
        </mxCell>
        <mxCell id="mXmj-ERt6PBvFFXzy5VW-1" value="Create Department" style="rounded=1;whiteSpace=wrap;html=1;" vertex="1" parent="1">
          <mxGeometry x="372" y="639" width="212" height="84" as="geometry" />
        </mxCell>
        <mxCell id="mXmj-ERt6PBvFFXzy5VW-2" value="&lt;font color=&quot;#b3b3b3&quot;&gt;&amp;nbsp; Department Name&lt;/font&gt;" style="rounded=0;whiteSpace=wrap;html=1;align=left;" vertex="1" parent="1">
          <mxGeometry x="339.5" y="470" width="277" height="60" as="geometry" />
        </mxCell>
        <mxCell id="mXmj-ERt6PBvFFXzy5VW-3" value="Enter Unique Name For New Department" style="text;html=1;align=center;verticalAlign=middle;whiteSpace=wrap;rounded=0;" vertex="1" parent="1">
          <mxGeometry x="335.5" y="403" width="285" height="30" as="geometry" />
        </mxCell>
        <mxCell id="mXmj-ERt6PBvFFXzy5VW-4" value="&lt;h1 style=&quot;margin-top: 0px;&quot;&gt;Create New Department&lt;/h1&gt;" style="text;html=1;whiteSpace=wrap;overflow=hidden;rounded=0;align=center;" vertex="1" parent="1">
          <mxGeometry x="306" y="241" width="337" height="55" as="geometry" />
        </mxCell>
      </root>
    </mxGraphModel>
  </diagram>
</mxfile>
